<svg width="1259" height="816" viewBox="0 0 1259 816" fill="none" xmlns="http://www.w3.org/2000/svg">
<path d="M670 658C912.8 591.6 984.833 418.333 990.5 340C1030.83 340 1129.7 359.8 1202.5 439C1277 538 1237 623 1158 688.5C1205.5 797.5 1215.5 789 1257 814C1228.5 824.5 1135 777.5 1060 734C991 760.5 766 766.5 670 658Z" fill="#5C5AFF"/>
<path d="M670 658C912.8 591.6 984.833 418.333 990.5 340C1030.83 340 1129.7 359.8 1202.5 439C1277 538 1237 623 1158 688.5C1205.5 797.5 1215.5 789 1257 814C1228.5 824.5 1135 777.5 1060 734C991 760.5 766 766.5 670 658Z" stroke="black"/>
<path d="M670 658C912.8 591.6 984.833 418.333 990.5 340C1030.83 340 1129.7 359.8 1202.5 439C1277 538 1237 623 1158 688.5C1205.5 797.5 1215.5 789 1257 814C1228.5 824.5 1135 777.5 1060 734C991 760.5 766 766.5 670 658Z" stroke="black" stroke-opacity="0.2"/>
<path fill-rule="evenodd" clip-rule="evenodd" d="M481.5 646C747.425 646 963 501.388 963 323C963 144.612 747.425 0 481.5 0C215.575 0 0 144.612 0 323C0 420.186 63.9839 507.346 165.235 566.56L161.5 568.5C136.5 605.667 69.6 691 2 735C115.6 735 251.667 662 305.5 625.5L307.118 624.166C361.19 638.265 419.998 646 481.5 646Z" fill="#5C5AFF"/>
<path d="M218 368L198.5 301.3H213.3L227.1 355.6H224.6L240.5 301.3H251.5L267.7 356.4H264.8L278.7 301.3H293.5L274 368H260.5L244.6 316.8H247.4L231.5 368H218ZM303 368V297H315.7V326.3L311 323.3C313.667 321.233 316.7 319.567 320.1 318.3C323.5 317.033 326.9 316.4 330.3 316.4C334.1 316.4 337.4 317.033 340.2 318.3C343 319.567 345.167 321.633 346.7 324.5C348.3 327.3 349.1 331.1 349.1 335.9V368H336.4V338.1C336.4 334.367 335.5 331.6 333.7 329.8C331.967 327.933 329.333 327 325.8 327C324 327 322.2 327.267 320.4 327.8C318.6 328.333 317.033 329 315.7 329.8L315.6 368H303ZM385.159 369.5C376.892 369.5 370.692 367.2 366.559 362.6C362.425 358 360.359 351.367 360.359 342.7C360.359 333.433 362.459 326.7 366.659 322.5C370.925 318.3 377.059 316.2 385.059 316.2C390.659 316.2 395.325 317.2 399.059 319.2C402.792 321.133 405.559 324.067 407.359 328C409.225 331.933 410.159 336.833 410.159 342.7C410.159 351.367 407.992 358 403.659 362.6C399.392 367.2 393.225 369.5 385.159 369.5ZM385.159 359.1C388.092 359.1 390.459 358.433 392.259 357.1C394.125 355.767 395.492 353.9 396.359 351.5C397.225 349.033 397.659 346.1 397.659 342.7C397.659 338.9 397.192 335.8 396.259 333.4C395.392 331 394.025 329.233 392.159 328.1C390.359 326.967 388.025 326.4 385.159 326.4C382.225 326.4 379.859 327 378.059 328.2C376.259 329.4 374.925 331.2 374.059 333.6C373.259 336 372.859 339.033 372.859 342.7C372.859 348.033 373.825 352.1 375.759 354.9C377.692 357.7 380.825 359.1 385.159 359.1ZM468.284 369.5C465.484 369.5 462.818 369.233 460.284 368.7C457.751 368.167 455.484 367.3 453.484 366.1C451.484 364.833 449.884 363.133 448.684 361C447.551 358.8 446.984 356.067 446.984 352.8C446.984 349.4 447.684 346.533 449.084 344.2C450.484 341.8 452.518 340 455.184 338.8C457.918 337.533 461.251 336.9 465.184 336.9C467.584 336.9 469.818 337.133 471.884 337.6C473.951 338 475.818 338.567 477.484 339.3C479.151 340.033 480.518 340.833 481.584 341.7L482.484 348.8C481.084 347.867 479.284 347.133 477.084 346.6C474.951 346 472.618 345.7 470.084 345.7C466.551 345.7 463.918 346.267 462.184 347.4C460.451 348.533 459.584 350.3 459.584 352.7C459.584 354.367 460.051 355.767 460.984 356.9C461.918 357.967 463.118 358.8 464.584 359.4C466.051 359.933 467.584 360.2 469.184 360.2C472.851 360.2 475.484 359.967 477.084 359.5C478.751 358.967 479.584 357.867 479.584 356.2V336.3C479.584 333.033 478.551 330.667 476.484 329.2C474.418 327.667 471.518 326.9 467.784 326.9C464.918 326.9 461.984 327.4 458.984 328.4C455.984 329.333 453.551 330.567 451.684 332.1V320.6C453.484 319.467 456.184 318.467 459.784 317.6C463.384 316.733 467.251 316.3 471.384 316.3C473.118 316.3 474.951 316.467 476.884 316.8C478.818 317.133 480.651 317.667 482.384 318.4C484.184 319.133 485.818 320.167 487.284 321.5C488.751 322.767 489.918 324.4 490.784 326.4C491.651 328.333 492.084 330.7 492.084 333.5V357.4C492.084 360.533 491.084 363 489.084 364.8C487.084 366.533 484.318 367.733 480.784 368.4C477.251 369.133 473.084 369.5 468.284 369.5ZM551.325 334.4V368H538.725V336.6C538.725 335.333 538.558 334.133 538.225 333C537.892 331.8 537.325 330.767 536.525 329.9C535.725 328.967 534.625 328.267 533.225 327.8C531.825 327.267 530.025 327 527.825 327C526.158 327 524.525 327.167 522.925 327.5C521.392 327.833 520.025 328.267 518.825 328.8V368H506.125V321.8C507.525 321.133 509.192 320.467 511.125 319.8C513.058 319.133 515.158 318.567 517.425 318.1C519.692 317.567 521.958 317.167 524.225 316.9C526.558 316.567 528.758 316.4 530.825 316.4C535.492 316.4 539.325 317.033 542.325 318.3C545.325 319.5 547.558 321.433 549.025 324.1C550.558 326.7 551.325 330.133 551.325 334.4ZM537.725 324.8C539.858 323 542.292 321.5 545.025 320.3C547.758 319.033 550.625 318.067 553.625 317.4C556.625 316.733 559.492 316.4 562.225 316.4C566.892 316.4 570.725 317.033 573.725 318.3C576.725 319.5 578.958 321.433 580.425 324.1C581.958 326.7 582.725 330.133 582.725 334.4V368H570.125V336.6C570.125 335.333 569.958 334.133 569.625 333C569.292 331.8 568.725 330.767 567.925 329.9C567.125 328.967 566.025 328.267 564.625 327.8C563.225 327.267 561.425 327 559.225 327C557.558 327 555.925 327.233 554.325 327.7C552.792 328.167 551.425 328.867 550.225 329.8L537.725 324.8ZM625.277 368V301.3H638.877V368H625.277ZM692.918 350V346.9C692.918 343.233 693.418 340.233 694.418 337.9C695.418 335.5 696.651 333.533 698.118 332C699.585 330.467 701.051 329.1 702.518 327.9C703.985 326.7 705.218 325.467 706.218 324.2C707.218 322.867 707.718 321.267 707.718 319.4C707.718 317.067 707.251 315.267 706.318 314C705.385 312.667 704.085 311.733 702.418 311.2C700.751 310.6 698.818 310.3 696.618 310.3C693.751 310.3 691.051 310.767 688.518 311.7C686.051 312.633 684.018 313.733 682.418 315V304.7C683.018 304.3 684.051 303.767 685.518 303.1C686.985 302.433 688.785 301.833 690.918 301.3C693.051 300.767 695.385 300.5 697.918 300.5C700.651 300.5 703.251 300.9 705.718 301.7C708.185 302.433 710.351 303.6 712.218 305.2C714.085 306.733 715.551 308.7 716.618 311.1C717.685 313.433 718.218 316.2 718.218 319.4C718.218 322.333 717.718 324.733 716.718 326.6C715.718 328.4 714.451 329.967 712.918 331.3C711.451 332.633 709.985 334 708.518 335.4C707.051 336.733 705.818 338.333 704.818 340.2C703.818 342 703.318 344.367 703.318 347.3V350H692.918ZM692.218 368V357.6H703.918V368H692.218ZM740.806 350.1L739.306 301.3H751.506L750.106 350.1H740.806ZM739.606 368V357.6H751.306V368H739.606Z" fill="white"/>
</svg>
